<svg xmlns="http://www.w3.org/2000/svg" viewBox="0 0 878 432"><defs><linearGradient id="a" x1="439.34" y1="418.4" x2="439.34" y2="49.28" gradientUnits="userSpaceOnUse"><stop offset="0" stop-color="#f5f7fb"/><stop offset="1" stop-color="#dee7f3"/></linearGradient></defs><path d="M855.31 418.4c1.52-1.51 2.78-3.62 4.61-4.43 5.88-2.6 12-4.71 18.11-8.79l-23.2-5.66c6.42-6 20-2 21.88-14.07L858.76 382l14.37-10.39-14.46-1.29c2-3.75 3.86-7.2 6.33-11.78l-13.46 1.65 4.83-7.63-4.68-1.56 6.62-4.38c.65-4.57 1.16-8.13 1.56-10.92l-11.42-4.59 4.3-8.65-3.32-2.68 7.09-11-6 1.18-6.86-7.09q1.83-6.94 4.35-16.43l-12.89 3.44c1.61-5.6 2.86-10 4.13-14.41l-12.41-1.72 14.68-22.27-12.91-9.35c-6 5.13-10.08 4.39-14.75-4.29 14.72 3.5 18.69-7 23.46-18.32l-11.52-4.31-1 2c-.26-1.61-.51-3.22-.78-4.89-7.32 3.48-12.31 1.38-17.21-7.08a35.7 35.7 0 0 1 6.21.07 53.62 53.62 0 0 1 6.88 2.15l13.4-18.24-11.7-3.9-3.65 5.24-10.39-7.56c11.51.54 17.22-6.64 23.17-15.47l-17.48-6.69c-2 .92-6.46 9.49-7.44-2.07-.06-.73-2.76-1.23-5.5-2.37l9.57-2.14 1.82 3.1 11.11-5.81-12.72-14.32 2.62-4.49-4.71-3.68 6.13-5c-.45-8.2-.81-14.8-1.25-23.07-3.11 3.75-5.87 6.4-7.76 9.56-2.05 3.42-3.27 7.33-4.86 11l-1.76-.39v-16.09l7.78-.83c-1.67-3.2-2.75-5.28-4-7.76l4.67-.53c-.32-3.43-.6-6.47-1-10.74L797 92.78c1.59-5.58 3.21-11.29 5.06-17.78l-3.93 1.72c-.6-2.76-1.22-5.59-1.85-8.43l-1.09.1c-.17 3.75-.35 7.5-.55 11.93L790.48 78c-.2 4.42 5.33 11.59-5.56 9.81 1.33 6 2.6 11.72 4 18.22l-2.35.72c.27 2.61.55 5.35 1 9.8l-10.23-8.17c1.77 6.37 3.4 10.72 4.07 15.22.36 2.42-.92 5.09-1.51 7.92l14.54 9.1c-2.75 3.74-4 3.5-10.59.05-3.08-1.62-6.88-1.85-11.5-3l-6.02 5.33 14.54 14.44c.38 6.71-7.55 5.06-14.22 7.85l10.05 14.49-5.93.53c.29 2.61.53 4.84.84 7.71l-15.82-4.58 3.77-4.67-4-3c10.51-4.4 2-12.68 4.6-18.46l-1.89-1.4-13 15.28c-.22-5.05-.39-8.81-.55-12.54l7.84-.89-2.86-5.49 4.07-.64c-.29-2.46-.55-4.58-.92-7.72l-9.18 6.09 4.14-10.84-5.53-6.94c-.38 2.35-.81 5-1.26 7.72l-3.33-1c1.47 6.82.94 7.56-4.62 7.67.6 6.24 1.21 12.55 2 20.67l-9.63-5.85c1 5.9 1.79 11 2.81 17.16l13 5.79c-4.2 3-13.57 1.78-20.89-2.94l-7.2 4.86c8.49 3.93 13.92 15.51 26.34 9.31l-6.8 5.84c-.16-.67-.33-1.34-.49-2L713 201.92l10.05 10.58-5.18 1.31c.24 1.58.49 3.14.57 3.7l-10.75 1.94 19.55 16.79-.92 2.07-15 1.36-2-6.63-6.45.75c0-3.2-.08-6.42-.13-10.57l-9.14 3.91 4.09-7.69-5.31-5.11-3.38 6.13-1.53-.64c.48 1.33 1 2.65 1.52 4.25l-6.25.74c.47 4.36 1 9.18 1.61 14.91l-9.4-3.51a64.77 64.77 0 0 1 2.1 6.64 39.88 39.88 0 0 1 .35 5.55l13.12 5v.9l-26.3-2.23c-.17.83-.33 1.66-.5 2.48l15.15 8.87-15 3.54 8.78 7.33-13.4 6.08L676 291.19l-.76 1.78h-23.6c1.65-3.36 3.2-6.54 5-10.16l-15.45-1 18.1-17.24L645.8 257c-4.94 3.27-10 3.17-15.76-3.27 12.51 1.52 19.94-3.34 24-15.2-3.18-.58-7.22-.23-9.77-2-6-4.22-15.73.78-19.66-8.74l12.76 1.16 12.76-14c-5.13-.69-8.92-4.35-14.7-.86-2.17 1.31-7.35-2.34-11-4.76 10.34 1.36 17.09-3.44 23.36-12.13-3.36-.5-6.13-.95-8.92-1.3-.63-.07-1.79.53-1.89.35-3.49-6-7.63-3.31-13.49.72.57-4.75.92-7.66 1.35-11.27 5.31 6.24 9.38 2.22 13.63-.15l-13.29-17.86c11-5.36 2.79-14.16 5.27-20.85l-2.14-1.33c-3.86 5.09-7.71 10.18-12.45 16.45-.61-5.06-1.09-9.13-1.61-13.53l8.77-.58-3.12-5.85 3.91-.85c-.2-2.83-.38-5.36-.6-8.52l-9.16 6c1.63-4.46 3.28-9 5.38-14.76-1.93 1.35-2.83 2-4.12 2.86-.67-2.55-1.33-5-2-7.53l-1.27.2c-.15 3.23-.3 6.46-.48 10.12l-4.62-3.4c1.78 5.18 3.16 9.2 4.35 12.68l-7.72-5.09-1.47 1.29 4.32 14.63-2.64-.15c.31 2 .62 4 1.14 7.45l-10.22-5.55c1.57 4.64 3.11 8 3.72 11.53.36 2-.79 4.33-1.28 6.58l14.55 7.31-.35 1.95-22.05-4.46-5.82 4.08c8.34 4.1 12.42 16.83 25.34 10-2.95 3.88-4.62 7.81-10.91 4.57-2.88-1.48-8 1.44-14.18 2.82l9.95 11.41c-6-.15-7.36 9.91-15.36 7.66l19.07 17.49-.45 2.26-17.87 2.47c.48 1.9.87 3.43 1 3.89-4.34.54-8.49 1.66-12.56 1.41-3.62-.23-7.14-2-10.6-4 9.14.5 16.53-2.19 23.23-10.51l-24.38-3.24c.31-1 .95-3.1 1.06-3.43l13.9-1.79c.11-.72.22-1.44.34-2.15-1.89-1.3-4.3-2.24-5.54-4-1.62-2.32-8.15-2.38-4-7.69l-4.14-2.54c5.83-2.13 5.83-2.13 4.59-19.08-5.21 5.48-9.34 9.81-14.38 15.09-.23-4.56-.4-7.82-.58-11.42 10.73 1.45 7.27-6.87 9.13-13.39l-9.64 4.8 3.78-9.16-5.56-6.34c-.3 2.2-.62 4.59-1 7.44l-3.81-1.24c2.36 5.52.53 7.79-4.49 6.69.58 5.82 1.16 11.54 1.86 18.52l-9.27-4.38c.85 5.12 1.6 9.67 2.5 15.06l13.35 5.41c-.07.6-.14 1.2-.2 1.8l-22.46-3.62-5.9 3.71c9 3.16 14.31 14.3 25.84 7.61-6.14 9.23-16.7.92-24.75 8.83l8.69 7.42c-2.59.2-7.86-1-3.77 5.21l-11.57-1.1 1.88-7.73-1.83 1.17-9-11.88-2.12 5.34-2.23-.21c.16-3.18.33-6.36.51-9.85h-6.91l2-5.06-7.03-5.56c-.36 1.95-.77 4.08-1.17 6.23l-4.15-.91c3.95 6.07 0 6.3-3.81 6.13.45 4.93.88 9.57 1.37 15l-8.83-3.8c.85 4.74 1.58 8.83 2.37 13.22l11.67 4.89c-9 1.27-17.53-6.33-26.18.82 4.81 2.82 9.36 5.48 14.44 8.47l-13.44 4.1 7.5 7-13 6.15 17 10.91-.63 1.94c-4.37.49-8.75.9-13.09 1.55-1 .16-2.52.94-2.77 1.75C451 295 450.8 295 447.47 292c1.69-4 3.19-7.64 4.71-11.29-3.56 0-6.41.22-9.21-.07a39.42 39.42 0 0 1-6-1.34l17.85-19.46-13.33-8.66c-7.38 4.35-10.39 3.86-15-3.68 12.64 1.88 18.85-5.22 22.56-16.94l-14.66-5.76c-6.09 2-7.18 1.67-16.14-7.2l14.32 1.51 13-16.37-11.23-3c-5.79 4.9-8.54 4.32-14.67-4.26 11 2.66 17.42-3.37 23.88-12.83l-10.15-1c-.6-.06-1.65.12-1.77-.14-3.28-7.45-7.44-2.52-11.16-.52-3-4.92-3-5.27.45-11.89.63 1.2 1 2 1.52 2.85s1 1.6 1.62 2.45l11.17-5.4c-3.07-2.72-6.32-4.29-7.24-6.74-1.19-3.14-8.06-4.46-3.62-9.74.13-.15-2.3-2.44-3.53-3.73l5.1-4.53c-.39-7.57-.69-13.53-1-18.86l-6.67 1.38-3.3-6.74 3.62-1.19c-.2-3.19-.39-6.11-.62-9.77l-9.28 7.2c1.69-5.37 3.38-10.73 5.35-17l-4.18 2.44c-.59-2.83-1.14-5.55-1.7-8.26l-1.26.07c-.19 3.65-.38 7.29-.6 11.47l-4.48-3.18c1.38 4.49 2.48 8 3.38 11l-8.6-1.64 4.7 16.82-2.72.82c.42 2.37.83 4.74 1.53 8.77l-10.51-7.16c1.68 5.76 3.27 9.88 3.95 14.16.33 2.07-1.05 4.41-1.61 6.41l14.79 8.69c-3.87 4.19-7.16 1.59-11.08-.53-2.84-1.54-6.54-1.48-11.11-2.39l-5.34 4.12c8.45 12.09 13.85 14.61 25.94 11.4l-7.85 7.7-.21-1.88-18.68 2.68 10.36 13.75c-4.74-.57-7 1.5-5.14 5.71L373.08 203l19.77 20.47-.54 2.33-19.43 3.31 11.42 15.38-13.17.9c4.17 4.92 7.56 8.9 11.31 13.31l5.47-4.88c-1.21 9.1-1.27 9-11.34 12.93-3 1.18-5.52 3.47-8.78 5.59-.49-4.24-.82-7.1-1-8.6l-8.26-2.38c.91-3.67 1.4-5.67 2.21-8.93l-10.25 4.48 4.28-8-4.87-4.49-8.74 11.38-1.16-1.37c.46 4.62.91 9.23 1.49 15-6.5-2.31-12-4.83-17.77-6.13-5.23-1.19.21-5.1-2.34-6.59 6.62-4 .64-9.18.78-14.44-2.56 2.06-5.1 4.16-7.69 6.18-4.85 3.77-5.41.07-6.49-4 8.42 1.12 8.2-4.79 9-10.94l-9.22 3.45 3.83-7.43-5.45-4.63c-2.61 6-12.18 6.72-19.84.46 8.9-.08 16.38-2.45 22.46-10.64-7.43.76-12.79-6.11-20.7-2.47-1.61.74-5.25-2.93-9.13-5.29l20.24-1.16.59-2.36-11.55-9.49 2.27-3.15-4.1-2.73c10.94-4.06 2.5-12.09 4.77-17.78l-1.79-1.29-13 14.49c-.32-4.5-.56-7.95-.81-11.45l8.12-1.53-3-5 4-.73c-.23-2.26-.43-4.35-.74-7.46l-9.21 5.78c1.5-3.78 3.11-7.8 5-12.6-7.06 3.77-3.67-3.12-6-5.1-1 2.78-1.85 5.39-2.74 8-1.1 6.38-1.2 6.51-7.05 6.19.61 5.92 1.23 11.92 2 19.51l-9.45-4.49c.94 5.37 1.76 10.1 2.82 16.15l13.21 5.75c-.09.63-.19 1.26-.28 1.9l-22.36-4.06-5.21 3.33c17.61 12 12.11 11.93 25.43 9-5.81 9.72-16.77.65-24.11 8.24l7.83 8.43c-3.32 0-6.94.62-4.48 4.83l-10.76 1.69 19.17 15.78-.46 2c-5.07.74-10.15 1.37-15.18 2.32-.9.17-1.55 1.66-2.32 2.55l9.08 10h-10.04c3.53 5 5.67 11.81 13.51 8.57-.06 6-3.08 7.88-13.38 7.87l4.38-5.51-30.07-6.63c0-.95-.09-1.91-.13-2.86 12.64 4.59 19.1-3.83 26.13-11-5.38.36-10.61-2.72-16.35.33-1.95 1-6-1.86-8.28-2.67l21.79-8.53c-.21-1.05-.42-2.11-.64-3.16-6.9.65-12.71-5-20.33-2-1.64.67-4.88-2.6-8.6-4.77l20.28-1.43c0-.72.07-1.43.1-2.15-2.81-2.41-5.91-4.55-8.34-7.3-1.71-1.94-2.49-4.69-3.71-7.13 3.68-1.93 3.68-1.93 3.48-16.11l-7 .44-3-4.93 3.73-.66c-.29-1.9-.59-3.79-1-6.72l-8.83 4.83 4.81-11.06-3.78.92c-.57-1.82-1.17-3.76-1.82-5.69-.05-.13-.44-.14-1.2-.36-.24 2.57-.47 5.06-.73 7.74l-3.84-1.34 4.32 11.32-1.07.41c-.71-1.66-1.42-3.33-2.18-5.08l-5.15.38c.62 5.62 1.24 11.25 2 18.35l-9.74-4.87c.94 5 1.79 9.54 2.82 15l12.7 5.79v1.13c-5.47-.6-12 .44-16.16-2.19-5.42-3.38-7.32 1.43-11 2 7.58 4.07 12.78 13.9 23.88 9.12-6.07 7.44-15.57.2-22.69 6.79l8.47 8.11-14.63 6.88 19.32 14.56c-14.83 5.9-26.71-6.16-40.63.34l2.08-5.42 14.42-1.54-14-13.14c11-2.17 3.62-9.13 3.9-15l-13.45 10.94c-.33-3.56-.59-6.29-.85-9.11 6.47.38 9-2.8 8.32-10.49l-8.9 3.51c1.6-3 3.08-5.87 4.15-7.88l-5.86-4.89c-.25 1.75-.56 3.9-.94 6.58l-3.71-2c1.79 5.23 0 7.4-4.5 6 .66 4.78 1.29 9.34 2.09 15.09l-9.58-3.34c1 4.25 1.85 8 2.73 11.91l10.7 5.15c-8.62 1.53-16.71-5.15-25.41 1 8.07 3.9 14.57 11.77 25.07 6.16v2.91c-6 .56-12.07 1.09-18.1 1.69s-12 1.25-17.52 1.83c2.19-5.82 3.78-10 5.09-13.48l-16.35-1.44c0-.71 0-1.43-.07-2.15 2.68-1 7.73-2.25 7.65-3-.67-6.74 5.83-8.49 8.46-12.77 3.22-5.23.06-7-3-9.26-2-1.45-4.42-2.32-7.54-3.91-1.6.43-4.85 2.06-8 1.86-2.34-.16-4.52-2.69-8.1-5l17.58-4 7.11-16-11.2-4.36-.94 1.68-1-4.47c-8.73 5-13.05-1.24-19-7.59l15 2.39c4.15-5.67 8.54-11.69 13.14-18l-10.88-3.49c-5.78 5.12-9 4.52-14.4-4.52l7.28 1.34c.28-.89.69-2.2 1-3.36 9.67 3 8.64-8.07 16.58-10.81l-20-7.36c-1.21.41-5.58 9.33-6.88-1.91-.09-.74-2.72-1.18-5.87-2.44l9.7-2.32 2.1 3.31 10.71-5.95-12.28-14.52c.49-.78 1.44-2.33 2.6-4.2l-4.56-3.73c2.67-2.36 5-4.41 5.89-5.18-.47-8.17-.84-14.57-1.21-20.9-9.68 2.3-7.73 13.07-14.26 19.49V85.93l7.66-1c-1.67-3.1-2.78-5.16-4.07-7.57l5-.68c-.49-3.21-1-6.37-1.69-11.18l-9.33 10.09c2-6.88 3.83-13 5.81-19.74L60.24 57c-.41-2.64-.8-5.17-1.2-7.7h-1.18c-.32 3.81-.64 7.63-1 11.95l-3.56-2.81c-1.16 4.06 6.19 12.73-4.67 10.69.67 8.74 1.37 17.57 2.05 26.41l-2.06.46-7.47-5.9c.93 7.84 1.77 14.93 2.73 23.05L57 121.42c-2.17 3.81-3.18 3.59-10.79-.22-3.1-1.55-6.91-1.67-11.46-2.67l-6 5.22c4.28 4 8.77 8.07 13.12 12.31.82.8 1.76 2.54 1.41 3.23-.81 1.62-2.12 3.54-3.67 4.11-2.66 1-5.66 1-10.79 1.79l9.88 14.87-5.47 1.14c.43 2.37.81 4.42 1 5.66l-11.13 2.21L45 194.45l-22.13 3.62 11.73 17-13.23 1.18L32.61 231c1.65-1.55 2.82-2.63 4-3.72l1.72.82c-1.43 2.92-2.12 6.88-4.45 8.55-5 3.59-10.85 6-16.52 9 11.39 14.69 11.39 14.69 27.45 11l-11.6 7.85c1 1.17 2.21 2.68 3.9 4.71l-24.45 4.05c.79 3.63 1.38 6.36 2.33 10.71l25.56 12.3c-8.86 8.59-19.06 6-31.61 4.79l21 23.11c-2.56 3.06-6 6.45-12.88 4.21-2.53-.82-6.25 2.17-9.47 3.3-1.71.6-3.52.94-6.24 1.65 4.57 2.74 5 6.87 6 11.11.63 2.71 4.08 4.77 7.62 8.57l-7.31 5.65 12.14 14.05-11.38.53-6.48 9.18H8.1c1.9 8.34 7.9 10.88 16.34 10.1-.23.68-.46 1.36-.68 2-2.7.56-5.44 1.75-8.07 1.55-7-.53-8.77.73-10.64 7.41-.5 1.8-2.86 3.09-4.36 4.61v1.47c2.69-.05 4.81-.26 6.59 3.12 1.18 2.24 5.43 2.85 7.86 4 .14.57.28 1.13.41 1.69zM108.49 289.87l-12.8-3.15c.28-1.21.55-2.42.82-3.63l12.73 2.75zm41.74-11.37l18.15-3.78c.87 1.12 2.42 3.11 4.36 5.58H150zm25.87 19.12c-8.13-.83-16.18-2.47-24.27-3.83l-.19-1.56 16.85-3.67 12.06 5.58c-.86.72-2.81 3.65-4.45 3.48zm28.29-88.48c-.52-3.12-1-6.24-1.64-9.94l8.82-.52-5 10.95zM221 288.83v-2.72l14.86-.91.11 3.63zm30 11.32l-9.22 1.13-.92-2 17-9.94c.46.85.92 1.7 1.37 2.55l-10.38 4.47zm112.57 20.65l-.26-2.39h7.44c1.57 0 3.48.5 4.66-.2 7.37-4.33 7.32-4.42 14.91.06-8.71 7.17-17.81 3.73-26.75 2.53zm19.59-31.62l4.57 5h-27.54l1-2.91 14.9-1.52-13.74-12.85c6.65-2.9 6.65-2.9 9.46 2.1 2.05 3.64 10 5.92 14.11 4.21a15.59 15.59 0 0 1 8.7-1.23zm27.5-147.93l-1.27-14.31h8.85l-5.34 14.78zm27.15 210.47l18.58 5.22c-7.39 4.8-10.81 3.88-18.58-5.22zm7.39-45.45h20.45c-6.92 6.49-12.85 6.61-20.45 0zm82.44-45.66l-14.09-3 8.67-7.27 6.32 7.62zm58.18 1.49l-28.32-5.48-.31-3.18c11.38 4.2 17.58-3.25 24.52-9.69l8.12 7.38h-14.3zm58.34 84.22l30.48 1.68c-14.13 6.8-24.54 5.87-30.48-1.68zm51.35-103.89L694 234h8.59l-5.13 8.84zm11.65 9.76c2.71-6.73 2.71-6.73 12.77 1.05zm63.32-51.66c-1.88 1-14.45-1.46-21.41-4.85 7.54-.07 15.74-3.17 21.41 4.85zm-3 15.09c3.37-4.52 5.25-7 7.46-10l6.71 9z" fill="url(#a)"/></svg>