<svg xmlns="http://www.w3.org/2000/svg" viewBox="0 0 360 512.16"><defs><style>.a{fill:#75281e}.b{fill:#9a2d23}.f{fill:#e8513c}</style></defs><path class="a" d="M152 364s40.55-24.88 47.58-32.34 71.32-24.7 110.3-25.82l2.14 74S202 345.48 152 364z"/><ellipse class="b" cx="310.97" cy="342.81" rx="14" ry="37" transform="rotate(-1.65 311.445 343.098)"/><path class="b" d="M49 289.52s53 16.37 84.49 10.7L202 337.4s-39.47 33.11-66.74 26.12-86.27 0-86.27 0z"/><ellipse class="a" cx="48.99" cy="326.52" rx="14" ry="37"/><path class="a" d="M135 328.87l67 8.53 7.68 21.92S179 400.11 135 400.11s0-71.24 0-71.24z"/><path d="M179.79 337.4c57.84 0 112-36.87 112-81S270.4 220.54 274 148.54c0 0-14 60-22.66 57.29s16.72-64.74-44.93-126.4c-20.16-20.15-75.88-39.76-75.88-72.29 0 0-8.31 36.55 14.47 95.43 17.39 45-7.16 59.66-7.16 59.66s-2.66-35.69-28.72-68.23c0 0 14.9 93.5-13.19 117.53 0 0-8-26.67-8-36.07S6.29 337.4 179.79 337.4z" fill="#f49f23"/><path d="M184.71 317.88S237 313.18 237 280.3s-29.27-46.39-32-73.4c0 0 .82 46.39-19.74 41.69s-41.06-69.89-19.94-91c0 0-42.3 28.77-42.3 92.77s26.3 67.52 61.69 67.52z" fill="#ffca29"/><ellipse class="b" cx="135" cy="367.2" rx="29.57" ry="32.91"/><path class="f" d="M92.44 448.31c0 14.91-12.81 30.92-36 30.92-16.11 0-23.92-8.31-23.92-20.52 0-15 12.81-31 36-30.92 16.12-.1 23.92 8.01 23.92 20.52zm-46.13 9.4c0 7.11 4.5 10.71 12.11 10.71 12.21-.1 20.31-10.51 20.21-19.11.1-7.31-4.6-10.81-12.2-10.71-12.21 0-20.12 10.21-20.12 19.11zM156.48 448.31c0 14.91-12.81 30.92-36 30.92-16.11 0-23.92-8.31-23.92-20.52 0-15 12.81-31 36-30.92 16.12-.1 23.92 8.01 23.92 20.52zm-46.13 9.4c0 7.11 4.5 10.71 12.11 10.71 12.21-.1 20.31-10.51 20.21-19.11.1-7.31-4.6-10.81-12.21-10.71-12.21 0-20.11 10.21-20.11 19.11z"/><path class="f" d="M177.79 486.53c6.6 0 12.91-.2 15.51-.3a62.37 62.37 0 0 0-3.6 11.11c-6-.4-38.83-.4-44.53-.1a54.88 54.88 0 0 0 3.7-11c.9 0 2.9.3 5.5.3 3.31 0 5.11-1 6.71-4.7 7.2-15.51 13.31-35.33 13.31-40.83 0-1.8-.8-2.8-2.3-2.8-2.81 0-5.51 2-8.91 5.7a35.35 35.35 0 0 0-5-8.1c6.1-5.41 12.1-8.21 18-8.21 6.3 0 10.31 3.3 10.31 10.31a44.11 44.11 0 0 1-.81 7h.9c6.91-12.11 14.51-17.31 22.92-17.31 8.71 0 14 6 14 15.71 0 16.61-12.61 35.22-29.12 35.22-7.4 0-13.11-3.5-15.61-8.8l-.1.3c-1 3-2.2 6.2-3.4 9.51-1.98 5.59-.58 6.99 2.52 6.99zm32-40.23c0-4.7-2.1-6.9-6.1-6.9-6.91 0-14.11 6.2-21.92 23.31 3.1 3.91 6.31 5.41 10.11 5.41 9.83 0 17.93-12.51 17.93-21.82zM256.24 458c-16-2.2-22.22-6.2-22.22-14.51 0-9.7 10.31-15.91 27.82-15.91 17.11 0 23.42 6.51 23.42 13 0 4-2.61 7.4-7.91 7.4-5.1 0-7.9-3-7.81-6.2a5.58 5.58 0 0 1 1.31-3.8 50.73 50.73 0 0 0-9.61-.9c-10.61 0-15 2.3-15 5.9 0 2.9 2.2 4.4 11.81 5.71 14.91 2 23.61 4.5 23.61 14.4s-9.5 16.42-28.82 16.42c-20.41 0-29-5.71-29-14.71 0-4.31 2.71-8.11 8.51-8.11 5 0 7.3 2.8 7.3 6a5.08 5.08 0 0 1-2.7 4.71 50.74 50.74 0 0 0 16.11 2.4c11.41 0 16.11-2.1 16.11-5.8-.03-2.89-2.23-4.49-12.93-6zM300.06 479.23c-6.5 0-9.2-3.91-9.2-8.71s3.3-8.61 9.2-8.61 9.21 3.81 9.21 8.61-3.27 8.71-9.21 8.71zm4.61-26.12c-1.21 0-2.31 0-3.51.1 3.71-11.81 2.4-22.92 2.8-28.62.3-6.91 4.21-10.71 10.61-10.71 6.21 0 8.61 3.6 8.61 8.31 0 8.2-12 18.71-15 31a34.35 34.35 0 0 0-3.51-.08z"/></svg>