<svg xmlns="http://www.w3.org/2000/svg" viewBox="0 0 256 256"><path d="M223.64 94.42l-1.4-4.56-4.76-.29a1526.39 1526.39 0 0 0-179 0l-4.76.29-1.4 4.56c-7.67 25-7.67 45.33 0 70.29l1.4 4.57 4.76.28c29.69 1.75 59.58 2.63 89.48 2.63s59.79-.88 89.48-2.63l4.76-.28 1.4-4.57c7.71-24.96 7.71-45.33.04-70.29z" fill="#fff"/><path d="M205.22 109c-16.39 7-9.81 22.86-17.6 22.86-8-2.33 1.73-6.87-11.91-19.85-17.42-16.58-25.37-2.72-42.13-1.4-14.88 1.17-29-4.32-30.38 16.56-.55 8.46 2 7.73-1.64 15.3-1.85 3.88-7.73 4.18-10.6 1.7-6.47-5.61 2.44-24.28-4.38-34-11.35-16.26-21.19-.17-16.45 13.63 5 14.56-17.87 18.34-12.34 3.77 1-14.56-5.8-20.08-15.11-18.43-3.54 16.12-3 30.3 1.5 47a1512.09 1512.09 0 0 0 167.64 0c4.58-16.82 5-31.1 1.41-47.39-3.29-2.53-8.01.25-8.01.25z" fill="none"/><path d="M211.82 156.11a1512.09 1512.09 0 0 1-167.64 0c-4.54-16.67-5-30.85-1.5-47 9.32-1.62 16.07 3.89 15.11 18.46-5.53 14.57 17.34 10.79 12.34-3.77-4.74-13.82 5.1-29.89 16.45-13.63 6.82 9.76-2.09 28.43 4.38 34 2.87 2.48 8.75 2.18 10.6-1.7 3.63-7.57 1.09-6.84 1.64-15.3 1.36-20.88 15.5-15.39 30.38-16.56 16.76-1.32 24.71-15.18 42.13 1.4 13.64 13 3.89 17.52 11.91 19.85 7.79 0 1.21-15.83 17.6-22.86 0 0 4.72-2.82 8-.32 3.64 16.32 3.18 30.61-1.4 47.43zm11.82-61.69l-1.4-4.56-4.76-.29a1526.39 1526.39 0 0 0-179 0l-4.76.29-1.4 4.56c-7.67 25-7.67 45.33 0 70.29l1.4 4.57 4.76.28c29.69 1.75 59.58 2.63 89.48 2.63s59.79-.88 89.48-2.63l4.76-.28 1.4-4.57c7.71-24.96 7.71-45.33.04-70.29zM38.62 180.89v18.31c52.75-.84 174.2 3.18 178.76-1.38 0-5.64-.8-16.29 0-19.68-40.07 5.78-121.54 0-178.76 2.75zM217.46 77a187.63 187.63 0 0 1 1-19.74s-92.22-3.57-180 1.24c.06 4 .15 16-1.17 19.7C103.32 77.37 178 76 217.46 77z"/></svg>