<svg xmlns="http://www.w3.org/2000/svg" viewBox="0 0 512 128"><path d="M115.07 58.1a11.16 11.16 0 0 0 1.57-5.89 14 14 0 0 0-1.06-5.36c11-1.35 18.48-6.6 18.58-17.25v-1.14l-1.25-.31c-.94 3.54-3.85 5.72-7.92 5.72-5.62 0-8.64-3.95-8.64-9.06 0-5.83 4.27-10.2 11.25-10.2 8.54 0 13.22 6.56 13.22 16 0 13.39-7.91 25.68-25.75 27.49zm-3.22-7.29c0-8.45-8.19-16.9-30.42-16.9-22.75 0-36.14 8.06-36.14 20.67 0 .52 0 1 .06 1.51.74 9.77 9 14.62 28.8 17.34 13.91 1.95 16.77 4 16.77 7.8 0 4.81-6.11 7.54-20.93 7.54a65.82 65.82 0 0 1-20.93-3.12 6.6 6.6 0 0 0 3.51-6.11c0-4.16-3-7.8-9.49-7.8-7.55 0-11.08 4.94-11.08 10.53 0 11.7 11.19 19.11 37.71 19.11 25.09 0 37.44-8.45 37.44-21.32S95.86 63.94 76.49 61.34C64 59.65 61.15 57.7 61.15 53.93v-.21c.17-4.55 5.91-7.46 19.49-7.46a65.69 65.69 0 0 1 12.48 1.17 6.31 6.31 0 0 0-1 1.67 8.11 8.11 0 0 0-.64 3.27c-.1 3 1.77 5.85 5.3 7.22a13.34 13.34 0 0 0 4.84.84c6.85 0 10.23-4.43 10.23-9.62zm201.67 10c0 19.37-16.64 40.17-46.8 40.17-20.94 0-31.08-10.79-31.08-26.65 0-19.5 16.65-40.3 46.81-40.17 20.93-.16 31.07 10.41 31.07 26.66zm-17.94 1.3c.13-9.49-6-14-15.86-13.91-15.86 0-26.13 13.26-26.13 24.83 0 9.23 5.84 13.91 15.73 13.91 15.86-.12 26.39-13.64 26.26-24.82zm90.12-28.33c-11.57 0-20.8 8.45-29.77 27.3h-1.17a70.1 70.1 0 0 0 1.82-12.61c0-9.75-5.85-14.56-15.21-14.56-8.19 0-16 3.77-24.57 10.66l-.29.25a32.62 32.62 0 0 1 3.12 13.4c9.21-8.2 13.65-10.57 17.68-10.57 3 0 4.29 2 4.29 5.2 0 4.55-2.6 14.69-7.54 27-1.95 4.81-3.77 5.85-7.41 5.85-5.59 0-9.88-.39-12-.39-.91 4.68-3 9.49-4.94 14.3 7.28-.39 50.7-.39 58.63 0 .91-4.68 3.12-9.49 5.07-14.3-2.73.13-9.36.39-16.25.39-4.68 0-5.2-3.12-3.9-6.76 6.76-18.2 17.81-29.9 29.25-29.9 3.77 0 6.9 1.17 9 3.9a12 12 0 0 0-2.21-.13c-7 0-10.8 4.81-10.8 10.4s3.51 9.1 9.23 9.1c9.11 0 13.66-9.49 13.66-20.28.05-9.93-4.63-18.25-15.69-18.25zm-156.84 47c-4.45 5.62-9.38 7.82-11.07 7.82a2.47 2.47 0 0 1-2.73-2.73c0-7.54 14.69-27.56 14.69-39.78 0-8.06-4-12.22-10.4-12.22-7.8 0-13.26 5.2-19.24 18.85h-1a34.7 34.7 0 0 0 .78-6.63c0-8.58-3.9-12.22-9-12.22-7.28 0-12.61 5.07-18.73 18.85H171a42.38 42.38 0 0 0 .65-6.24c0-8.45-4.16-12.48-11.44-12.48-4.68 0-10.27 1.69-17 7.28a29.23 29.23 0 0 1 5.72 8.45c3-2.73 5.07-4.16 7-4.16 1.69 0 2.34 1.3 2.34 3.51 0 6.37-7.8 28.86-17.42 49.79a120.76 120.76 0 0 1 14.82 1.56c1-2.73 2-5.33 2.86-7.93 14.95-39.39 21.32-44.85 25.1-44.85 1.82 0 2.59 1 2.59 3.25 0 4.81-2.08 12.87-16.9 48.1a110.49 110.49 0 0 1 14.44 1.43c1.69-4.68 3.38-9.1 4.94-13.39 10.4-27.69 17.29-39.39 23.14-39.39 1.82 0 3.25 1 3.25 3.64 0 9-13.52 25-13.52 38.48 0 7.41 4.29 11.18 12 11.18 5.2 0 10.53-2.08 16-7.41l2.58-2.68a29.92 29.92 0 0 1-3.2-10.05zm242-3.7a79.37 79.37 0 0 0 8.09 10.44C466 98.26 453 101 439.91 101c-23.09 0-34.19-10.44-34.19-26.75 0-21.27 17.36-40.59 47.9-40.59 18.13 0 26.36 8.09 26.36 18.66 0 16.05-20.1 24-56.38 23.49 1 8.35 7.7 11.88 19.45 11.88 8.74 0 20.22-3 27.79-10.57zm-46.47-10.4c27.53-1.44 38.88-4.57 38.88-12.27 0-4.3-3.78-6.78-11.35-6.78-14.36 0-24.66 8.22-27.53 19.05z"/></svg>